<svg width="26" height="30" viewBox="0 0 26 30" fill="none" xmlns="http://www.w3.org/2000/svg">
<path d="M24.74 23.3791C24.2863 24.4272 23.7493 25.392 23.1271 26.279C22.279 27.4882 21.5845 28.3252 21.0494 28.7901C20.2198 29.553 19.3309 29.9437 18.3791 29.9659C17.6958 29.9659 16.8717 29.7715 15.9125 29.3771C14.9501 28.9845 14.0657 28.7901 13.257 28.7901C12.4089 28.7901 11.4993 28.9845 10.5263 29.3771C9.55193 29.7715 8.76695 29.977 8.16679 29.9974C7.25404 30.0363 6.34425 29.6345 5.43613 28.7901C4.85652 28.2845 4.13154 27.4179 3.26305 26.1901C2.33123 24.8791 1.56514 23.3587 0.964971 21.6255C0.322212 19.7533 0 17.9404 0 16.1852C0 14.1748 0.434431 12.4407 1.30459 10.9876C1.98846 9.82044 2.89824 8.89973 4.03691 8.22383C5.17558 7.54792 6.40592 7.20349 7.73088 7.18145C8.45585 7.18145 9.40657 7.4057 10.588 7.84643C11.7661 8.28864 12.5226 8.51289 12.8542 8.51289C13.1022 8.51289 13.9425 8.25068 15.3671 7.72792C16.7143 7.24312 17.8513 7.04238 18.7828 7.12145C21.3068 7.32515 23.203 8.32012 24.4641 10.1127C22.2067 11.4804 21.0901 13.3961 21.1123 15.8536C21.1327 17.7678 21.8271 19.3607 23.1919 20.6255C23.8104 21.2125 24.5011 21.6662 25.2696 21.9884C25.1029 22.4717 24.927 22.9347 24.74 23.3791ZM18.9513 0.600171C18.9513 2.10051 18.4031 3.50138 17.3106 4.798C15.9921 6.33944 14.3973 7.23015 12.6679 7.0896C12.6459 6.90961 12.6331 6.72017 12.6331 6.5211C12.6331 5.08077 13.2602 3.53934 14.3736 2.27901C14.9295 1.64088 15.6366 1.11028 16.4939 0.687019C17.3495 0.270069 18.1587 0.0394863 18.9198 0C18.942 0.200572 18.9513 0.401177 18.9513 0.600171Z" fill="white"/>
</svg>
