<svg width="25" height="24" viewBox="0 0 25 24" fill="none" xmlns="http://www.w3.org/2000/svg">
<path d="M0.599976 21.6H24.6V24H0.599976V21.6ZM2.99998 12H5.39998V20.4H2.99998V12ZM8.99998 12H11.4V20.4H8.99998V12ZM13.8 12H16.2V20.4H13.8V12ZM19.8 12H22.2V20.4H19.8V12ZM0.599976 6L12.6 0L24.6 6V10.8H0.599976V6ZM2.99998 7.4832V8.4H22.2V7.4832L12.6 2.6832L2.99998 7.4832ZM12.6 7.2C12.2817 7.2 11.9765 7.07357 11.7514 6.84853C11.5264 6.62348 11.4 6.31826 11.4 6C11.4 5.68174 11.5264 5.37652 11.7514 5.15147C11.9765 4.92643 12.2817 4.8 12.6 4.8C12.9182 4.8 13.2235 4.92643 13.4485 5.15147C13.6735 5.37652 13.8 5.68174 13.8 6C13.8 6.31826 13.6735 6.62348 13.4485 6.84853C13.2235 7.07357 12.9182 7.2 12.6 7.2Z" fill="#1DAB87"/>
</svg>
